<svg width="61" height="18" viewBox="0 0 61 18" fill="none" xmlns="http://www.w3.org/2000/svg">
<g clip-path="url(#clip0)">
<path d="M61 5.43436C61 5.64644 60.9492 5.85852 60.8476 6.04408C60.5935 6.54777 60.3903 6.89239 59.4757 6.89239C59.1962 6.89239 58.9675 7.55513 58.9167 7.92626C58.7389 10.3651 58.7643 12.804 59.7043 15.0838C60.1616 16.1707 59.9076 16.7805 57.7988 17.6818C56.5794 18.212 56.2491 17.2046 56.1729 16.3298C55.9442 13.6523 55.8172 10.9749 55.7155 8.2974C55.6901 7.58164 55.9442 6.81286 54.7755 6.94541C54.5977 6.97192 54.242 6.54777 54.1658 6.25616C53.9117 5.30182 54.6485 4.02936 55.5377 3.63171C55.8172 3.52568 55.995 3.6052 56.1983 2.99548C56.6302 1.77604 57.4432 1.40491 58.434 1.16632C59.4757 0.901228 59.7297 1.19283 59.4757 2.30624C59.3994 2.65086 59.3232 2.96897 59.247 3.39313C59.2216 3.47266 59.2724 3.57869 59.374 3.57869L60.4919 3.81728C60.7714 3.8703 60.9492 4.10889 60.9492 4.40049V5.43436H61Z" fill="white"/>
<path d="M7.44404 4.79812C7.49485 4.87765 7.62188 4.87765 7.67269 4.79812C8.5365 3.49916 9.27327 2.30622 10.1117 1.19282C10.8993 0.132439 12.9063 -0.344733 14.0242 0.264987C14.2529 0.371025 14.4307 0.795178 14.4561 1.11329C14.6594 5.48737 14.9896 9.91447 14.9896 14.3151C14.9896 17.8408 14.5831 18.5036 10.569 17.5492C10.4928 17.5227 10.442 17.4697 10.4674 17.3902C10.6706 15.614 10.9755 13.8379 11.0771 12.0617C11.1787 10.2856 11.1025 8.48295 11.1025 6.6803C11.0771 6.46823 10.8485 6.36219 10.696 6.60077C10.0863 8.64201 9.52734 10.6832 8.86678 12.698C8.71434 13.1751 8.33325 13.7318 7.92675 13.8909C7.21538 14.156 6.60564 13.9704 6.30076 13.0161C5.74183 11.2134 5.03046 9.46381 4.3699 7.71418C4.24287 7.36955 4.06503 7.02493 3.91259 6.6803C3.88719 6.62728 3.83637 6.60077 3.76016 6.60077L3.65853 6.62728C3.58231 6.65379 3.5315 6.73332 3.5315 6.81285C3.73475 9.41079 3.9634 12.0087 4.19206 14.6067C4.21746 15.0573 4.31909 15.4815 4.3699 15.9587C4.52234 17.0721 5.03046 17.8143 3.73475 17.9469C1.19414 18.1324 0.635208 17.9204 0.43196 16.2503C-0.15238 11.452 -0.101568 6.6803 0.355741 1.85556C0.457366 0.71565 1.0163 0.318006 2.03254 0.185458C3.76016 -0.0266182 5.08127 0.344516 5.89427 2.14717C6.30076 3.04849 6.8597 3.84378 7.44404 4.79812Z" fill="white"/>
<path d="M39.4811 4.58604C39.9893 4.42698 40.5482 4.1884 41.1071 4.10887C42.6061 3.87028 43.851 4.69208 44.0796 6.46822C44.4099 8.93361 44.4353 11.452 44.5877 13.9704C44.6132 14.3681 44.5115 14.7657 44.4861 15.1634C44.3083 17.6288 43.851 17.9999 41.4628 17.7878C40.5736 17.7083 40.3703 17.4167 40.5736 16.4358C40.9547 14.5536 41.2087 12.6184 41.3866 10.6832C41.4628 9.88795 41.285 8.98663 41.0055 8.24436C40.599 7.13096 39.7352 7.07794 39.1509 8.11181C38.846 8.66851 38.6173 9.35776 38.6427 9.96748C38.719 12.0882 38.8714 14.1825 39.0746 16.3033C39.2271 17.7083 39.1 17.9204 37.7281 17.9999C35.8735 18.0794 35.5432 17.9204 35.4924 15.9321C35.3654 12.5389 35.3399 9.14569 35.4162 5.75246C35.467 3.68471 36.7881 2.78339 38.6681 3.41962C38.9984 3.49915 39.1763 4.10887 39.4811 4.58604Z" fill="white"/>
<path d="M24.3137 11.7702C24.4154 13.2283 24.4662 14.6863 24.6186 16.1178C24.7202 17.1782 24.2883 17.8409 23.3483 17.8674C21.7477 17.9205 20.1471 17.8939 18.572 17.6819C16.946 17.4698 15.9806 16.3299 15.6757 14.6333C15.3454 12.8571 15.7773 11.3461 17.2 10.3122C17.9876 9.75551 18.9531 9.51693 19.8423 9.06626C20.2234 8.8807 20.6299 8.58909 20.7823 8.19145C20.8585 8.03239 20.6045 7.47569 20.3758 7.39616C19.9439 7.26361 19.4358 7.21059 18.9785 7.36965C18.7244 7.47569 18.6228 7.71428 18.4195 7.89984C18.1401 8.16494 17.8606 8.40352 17.6065 8.64211C17.4541 8.77466 17.2254 8.77466 17.0984 8.6156C16.6919 8.19145 16.1838 7.76729 16.0568 7.26361C15.5741 5.38143 17.4795 3.55227 19.5882 3.71133C22.4083 3.92341 24.0851 5.62002 24.3392 8.58909C24.4154 9.64947 24.3646 10.7099 24.3646 11.7702C24.3391 11.7702 24.3137 11.7702 24.3137 11.7702ZM20.9855 11.9293C20.9601 11.7172 20.7315 11.5847 20.5282 11.6642C20.0201 11.9028 19.5882 12.0618 19.385 12.38C19.1055 12.8041 18.9277 13.5464 19.1055 13.997C19.2071 14.2356 19.5374 14.3947 19.8931 14.5272C20.1217 14.6068 20.4774 14.5803 20.6553 14.3947C20.9855 14.0766 20.9855 13.7054 21.0364 13.3343C21.1126 12.9101 21.0364 12.4595 20.9855 11.9293Z" fill="white"/>
<path d="M53.6068 10.7362V10.7627C53.7085 12.4593 53.7339 14.1825 53.9625 15.8791C54.115 17.0455 53.6831 17.6287 52.6668 17.6287C51.117 17.6552 49.5419 17.6552 48.0175 17.3901C46.3407 17.0985 45.4515 15.7995 45.1212 14.1029C44.7909 12.4593 45.3753 11.1073 46.5947 10.153C47.3823 9.51677 48.3732 9.17214 49.237 8.61544C49.4656 8.45638 49.7197 8.27082 49.8467 8.00572C49.9229 7.84666 49.9484 7.63459 49.8467 7.44902C49.5927 6.97185 49.0591 6.97185 48.6781 6.97185C48.297 6.97185 47.8396 7.47553 47.5856 7.89968C47.0267 8.85403 46.5185 8.93356 45.8072 8.05874C44.7909 6.73326 45.1212 5.11617 46.5693 4.24136C49.364 2.57125 53.2003 4.58598 53.5814 7.9527C53.683 8.85403 53.6068 9.80837 53.6068 10.7362ZM50.3294 11.9291C50.3294 11.664 50.1008 11.452 49.8467 11.505C48.9321 11.6375 48.3478 12.0882 48.3986 13.1221C48.4494 14.1029 49.11 14.3945 49.8975 14.421C50.1262 14.421 50.3294 14.2355 50.3294 13.9704V11.9291Z" fill="white"/>
<path d="M31.529 10.0734C34.0696 10.0734 34.0696 10.0734 34.3745 12.6979C34.4507 13.2546 34.4761 13.8378 34.5269 14.421C34.6794 15.9055 33.9934 16.8599 32.7739 17.4696C30.3603 18.7156 27.2862 17.7347 25.9397 15.2958C24.2121 12.1677 24.9488 7.4755 27.5149 5.08964C29.1408 3.55208 31.529 3.18095 33.155 4.1618C34.0442 4.7185 34.5777 5.56681 34.2729 6.57417C34.1204 7.13087 33.4599 7.58154 32.9263 7.87314C32.6723 8.00569 31.9863 7.76711 31.8085 7.50201C31.2241 6.60068 30.5636 6.73323 29.8522 7.18389C28.1754 8.24428 27.464 12.1677 28.7343 13.7318C29.0646 14.1559 29.7506 14.527 30.2333 14.474C30.716 14.421 31.402 13.8643 31.5036 13.3871C31.6814 12.5388 30.8939 12.4593 30.2841 12.5388C29.2679 12.6714 28.9122 12.1942 28.9122 11.1868C28.9122 10.365 29.1917 9.9674 30.0301 10.0469C30.4874 10.0999 31.0209 10.0734 31.529 10.0734Z" fill="white"/>
</g>
<defs>
<clipPath id="clip0">
<rect width="61" height="18" fill="white"/>
</clipPath>
</defs>
</svg>
